HIERARCHY
ROOT Hips
{
	OFFSET 0.000000 0.000000 0.000000
	CHANNELS 6 Xposition Yposition Zposition Zrotation Yrotation Xrotation 
	JOINT LHipJoint
	{
		OFFSET 0.000000 0.000000 0.000000
		CHANNELS 3 Zrotation Yrotation Xrotation
		JOINT LeftUpLeg
		{
			OFFSET 1.363060 -1.794630 0.839290
			CHANNELS 3 Zrotation Yrotation Xrotation
			JOINT LeftLeg
			{
				OFFSET 2.448110 -6.726130 0.000000
				CHANNELS 3 Zrotation Yrotation Xrotation
				JOINT LeftFoot
				{
					OFFSET 2.562200 -7.039590 0.000000
					CHANNELS 3 Zrotation Yrotation Xrotation
					JOINT LeftToeBase
					{
						OFFSET 0.157640 -0.433110 2.322550
						CHANNELS 3 Zrotation Yrotation Xrotation
						End Site
						{
							OFFSET 0.000000 0.000000 0.000000
						}
					}
				}
			}
		}
	}
	JOINT RHipJoint
	{
		OFFSET 0.000000 0.000000 0.000000
		CHANNELS 3 Zrotation Yrotation Xrotation
		JOINT RightUpLeg
		{
			OFFSET -1.305520 -1.794630 0.839290
			CHANNELS 3 Zrotation Yrotation Xrotation
			JOINT RightLeg
			{
				OFFSET -2.542530 -6.985550 0.000000
				CHANNELS 3 Zrotation Yrotation Xrotation
				JOINT RightFoot
				{
					OFFSET -2.568260 -7.056230 0.000000
					CHANNELS 3 Zrotation Yrotation Xrotation
					JOINT RightToeBase
					{
						OFFSET -0.164730 -0.452590 2.363150
						CHANNELS 3 Zrotation Yrotation Xrotation
						End Site
						{
							OFFSET 0.000000 0.000000 0.000000
						}
					}
				}
			}
		}
	}
}
MOTION
Frames: 27
Frame Time: 0.008333
1.082389 16.858009 -2.091828 -169.342131 87.994900 -165.191643 -9.611919 1.044910 0.681464 -20.199035 12.167409 -33.372647 -2.500135 0.087030 23.100133 3.191444 15.094156 -14.927321 178.183601 0.000000 -3.435300 10.955993 -4.240038 -1.734075 -5.688312 -19.354140 -0.074641 0.236272 -2.795204 36.772123 -0.067596 13.411000 22.375363 6.588401 0.000000 -97.901700
1.248213 16.786767 -2.131701 -178.731542 87.808293 -174.649562 -9.592118 1.234985 0.585492 -20.717511 12.335648 -34.030982 -2.536471 0.365558 25.619788 3.158801 14.690655 -15.832257 177.940900 0.000000 -4.633500 11.079243 -3.994785 -1.777680 -6.465943 -19.616399 -1.481463 -0.051638 -2.879258 40.254153 -0.304463 12.827234 24.415763 6.822900 0.000000 -97.076600
1.408490 16.711742 -2.171001 174.569735 87.520978 178.591371 -9.542297 1.403479 0.472202 -21.206846 12.448638 -34.705209 -2.560097 0.644398 28.210792 3.121792 14.269839 -16.759383 177.707000 0.000000 -5.767100 11.232128 -3.726309 -1.835845 -7.149253 -19.815695 -2.951339 -0.320584 -2.963824 43.836750 -0.573797 11.499426 26.247307 6.590100 0.000000 -95.091800
1.562655 16.633799 -2.210267 169.867470 87.144622 173.827813 -9.490321 1.538326 0.341350 -21.655714 12.482616 -35.330765 -2.563305 0.915081 30.806644 3.088219 13.883012 -17.697834 177.479200 0.000000 -6.781200 11.385943 -3.442839 -1.921042 -7.746248 -19.955549 -4.453033 -0.564154 -3.062924 47.498623 -0.868662 9.403798 27.708733 5.803500 -0.000000 -91.913500
1.710533 16.554046 -2.250088 166.667148 86.689112 170.557848 -9.449397 1.637175 0.194528 -22.056255 12.420873 -35.850869 -2.544499 1.170567 33.339289 3.065562 13.572295 -18.645333 177.250400 0.000000 -7.647200 11.527611 -3.149137 -2.041207 -8.265018 -20.039663 -5.961611 -0.784427 -3.187281 51.208359 -1.181570 6.599059 28.641743 4.464301 0.000000 -87.636900
1.852265 16.473925 -2.291044 164.605698 86.160088 168.414810 -9.424372 1.701185 0.034552 -22.405392 12.253574 -36.220239 -2.505943 1.404707 35.747295 3.059606 13.366234 -19.604438 177.011700 -0.000000 -8.340800 11.652675 -2.851914 -2.199013 -8.711402 -20.072163 -7.460563 -0.988668 -3.344821 54.922444 -1.503752 3.238814 28.919428 2.683700 -0.000000 -82.480300
1.988356 16.394972 -2.333632 163.408296 85.559853 167.125224 -9.415700 1.733004 -0.134514 -22.705758 11.976142 -36.410436 -2.452244 1.612809 37.981338 3.073837 13.277459 -20.580443 176.754200 -0.000000 -8.851399 11.760609 -2.559813 -2.391917 -9.087885 -20.054998 -8.942302 -1.186634 -3.539608 58.587845 -1.824348 -0.438582 28.471835 0.670299 0.000000 -76.739499
2.119597 16.318836 -2.378305 162.864021 84.890368 166.484777 -9.421814 1.736109 -0.307544 -22.964297 11.589856 -36.410948 -2.388858 1.791893 40.005602 3.109547 13.305278 -21.576739 176.470900 0.000000 -9.182700 11.852261 -2.281853 -2.612559 -9.393848 -19.987650 -10.408396 -1.387546 -3.770691 62.146294 -2.130671 -4.148868 27.302068 -1.317800 -0.000000 -70.723100
2.246987 16.247178 -2.425352 162.801943 84.153595 166.331892 -9.440057 1.714726 -0.478600 -23.190659 11.101895 -36.227006 -2.321355 1.940685 41.796703 3.165492 13.435168 -22.591857 176.159400 0.000001 -9.353901 11.928843 -2.025760 -2.849699 -9.625630 -19.867161 -11.867299 -1.597509 -4.031997 65.540571 -2.409266 -7.617098 25.481919 -3.038200 -0.000000 -64.698400
2.371644 16.181314 -2.474906 163.079928 83.352964 166.536936 -9.467192 1.673485 -0.642156 -23.396264 10.526086 -35.879231 -2.254791 2.059665 43.345654 3.238235 13.641377 -23.619558 175.821799 0.000000 -9.395800 11.991420 -1.796627 -3.090246 -9.779036 -19.690463 -13.333140 -1.817747 -4.313655 68.720340 -2.646965 -10.621785 23.130721 -4.316600 -0.000000 -58.869700
2.494780 16.122683 -2.527039 163.585628 82.493998 166.999513 -9.499963 1.617834 -0.791859 -23.591196 9.882120 -35.395407 -2.193350 2.150087 44.649251 3.322341 13.890232 -24.644088 175.466800 0.000000 -9.345300 12.040573 -1.597514 -3.319226 -9.849126 -19.454715 -14.821118 -2.044099 -4.603292 71.640689 -2.831609 -13.014606 20.388024 -5.069700 -0.000001 -53.335800
2.617626 16.072265 -2.581577 164.219760 81.584030 167.631646 -9.534679 1.553746 -0.922980 -23.784534 9.194687 -34.808599 -2.140600 2.214310 45.712356 3.410926 14.142458 -25.645640 175.108700 -0.000000 -9.243001 12.077017 -1.428057 -3.523340 -9.835093 -19.159734 -16.344847 -2.267980 -4.888411 74.266050 -2.952589 -14.715871 17.391276 -5.299300 0.000000 -48.132700
2.741349 16.030921 -2.638324 164.907532 80.632497 168.367516 -9.567955 1.487592 -1.031654 -23.982629 8.492547 -34.151434 -2.099389 2.254955 46.542040 3.496239 14.357224 -26.599608 174.766299 -0.000000 -9.124901 12.101254 -1.286187 -3.690605 -9.738761 -18.807225 -17.913234 -2.477537 -5.157443 76.565773 -3.001630 -15.702346 14.264661 -5.074600 0.000000 -43.244700
2.867029 15.999264 -2.696968 165.590612 79.648426 169.152693 -9.596861 1.426069 -1.114315 -24.188555 7.805681 -33.450410 -2.071883 2.274495 47.145721 3.570560 14.496578 -27.480190 174.461200 0.000000 -9.016400 12.113912 -1.169052 -3.810493 -9.566285 -18.401492 -19.527356 -2.659417 -5.400549 78.513603 -2.974062 -15.995338 11.118477 -4.509100 0.000000 -38.650700
2.995592 15.977674 -2.757337 166.232941 78.642901 169.953169 -9.618929 1.375010 -1.170271 -24.401167 7.162523 -32.725536 -2.059851 2.275393 47.529744 3.626726 14.527550 -28.263365 174.214400 -0.000000 -8.929099 12.115718 -1.071574 -3.876559 -9.326671 -17.947214 -21.181827 -2.800659 -5.610078 80.086988 -2.870513 -15.654285 8.056108 -3.739700 -0.000000 -34.374700
3.127759 15.966344 -2.819240 166.813885 77.625301 170.745887 -9.632599 1.339223 -1.199783 -24.616490 6.588077 -31.986682 -2.064385 2.259390 47.697540 3.659079 14.426826 -28.928310 174.044100 -0.000000 -8.860500 12.107287 -0.988639 -3.884572 -9.030497 -17.450038 -22.864167 -2.890660 -5.780468 81.266909 -2.698404 -14.773240 5.178879 -2.903599 0.000000 -30.524000
3.264029 15.965302 -2.882728 167.333301 76.605551 171.526079 -9.637205 1.321545 -1.205291 -24.825899 6.100945 -31.234451 -2.086127 2.227599 47.649142 3.663825 14.181135 -29.461146 173.962100 0.000000 -8.795600 12.088890 -0.914113 -3.834179 -8.686641 -16.915386 -24.557109 -2.923062 -5.907975 82.038798 -2.472701 -13.478215 2.585582 -2.117400 -0.000000 -27.303800
3.404673 15.974405 -2.948003 167.802653 75.591617 172.298018 -9.633013 1.322983 -1.190423 -25.018051 5.712578 -30.459752 -2.125071 2.180357 47.380882 3.639304 13.788936 -29.853545 173.973299 0.000001 -8.710300 12.060331 -0.841984 -3.728274 -8.302229 -16.349518 -26.239331 -2.896835 -5.990607 82.394459 -2.214424 -11.917818 0.358097 -1.458800 0.000000 -24.966500
3.549736 15.993458 -3.015362 168.237820 74.588386 173.066572 -9.620852 1.343249 -1.157782 -25.181037 5.424740 -29.643605 -2.180575 2.117056 46.884285 3.586196 13.260456 -30.103016 174.074901 0.000000 -8.574800 12.021037 -0.767531 -3.571893 -7.883907 -15.761201 -27.886337 -2.815685 -6.028077 82.333577 -1.947570 -10.251480 -1.464781 -0.958800 0.000000 -23.646400
3.699004 16.022055 -3.085389 168.666167 73.603183 173.849847 -9.602367 1.379792 -1.112384 -25.300044 5.232094 -28.765320 -2.251463 2.037006 46.151048 3.506938 12.614472 -30.213643 174.257100 0.000000 -8.357900 11.969549 -0.685951 -3.375111 -7.432941 -15.158532 -29.473913 -2.686367 -6.021858 81.864901 -1.695570 -8.636166 -2.896088 -0.610300 0.000000 -23.300600
3.852174 16.059755 -3.158700 169.112408 72.640185 174.661227 -9.579530 1.429577 -1.056229 -25.361366 5.120197 -27.800937 -2.335714 1.938897 45.170795 3.405505 11.877777 -30.190922 174.505700 0.000000 -8.029200 11.904091 -0.595113 -3.148049 -6.948827 -14.550892 -30.977796 -2.516296 -5.974483 81.002752 -1.478029 -7.211260 -3.998537 -0.383800 0.000000 -23.667199
4.008740 16.106013 -3.236008 169.603987 71.703238 175.518583 -9.554789 1.488643 -0.990187 -25.351815 5.068148 -26.730373 -2.430516 1.821362 43.934960 3.286707 11.081416 -30.041569 174.804200 0.000000 -7.563400 11.822456 -0.494652 -2.901330 -6.427352 -13.945294 -32.375989 -2.312395 -5.889157 79.765470 -1.309252 -6.087684 -4.862992 -0.244300 0.000000 -24.372000
4.168118 16.160165 -3.317985 170.166963 70.796158 176.440466 -9.531062 1.552687 -0.913703 -25.259361 5.050633 -25.540401 -2.532052 1.683344 42.439597 3.155706 10.259525 -29.770632 175.135300 0.000000 -6.944700 11.722225 -0.385605 -2.644498 -5.860797 -13.345168 -33.650130 -2.080794 -5.768865 78.171133 -1.198484 -5.341649 -5.580304 -0.161500 0.000000 -25.063300
4.329746 16.221570 -3.405324 170.827559 69.922149 177.449588 -9.511989 1.617262 -0.825006 -25.073261 5.039416 -24.226908 -2.635649 1.524228 40.685688 3.017157 9.444930 -29.379946 175.483200 0.000000 -6.171200 11.600611 -0.269894 -2.384856 -5.238798 -12.748893 -34.784986 -1.827566 -5.615242 76.229854 -1.151599 -5.015548 -6.201566 -0.114100 -0.000000 -25.682800
4.492922 16.289379 -3.498476 171.606630 69.083028 178.563626 -9.501915 1.678740 -0.721418 -24.784927 5.008197 -22.796216 -2.735697 1.344616 38.684968 2.875055 8.668965 -28.868588 175.834400 0.000000 -5.257700 11.455093 -0.150406 -2.128449 -4.550193 -12.155135 -35.769858 -1.557711 -5.430060 73.953661 -1.170215 -5.109723 -6.785059 -0.084500 0.000001 -25.953099
4.657076 16.362680 -3.597644 172.515860 68.278965 179.793961 -9.505681 1.734747 -0.599768 -24.390488 4.933600 -21.264053 -2.826034 1.146389 36.458437 2.732410 7.958842 -28.232186 176.178300 -0.000000 -4.237200 11.283362 -0.030389 -1.878727 -3.785308 -11.560894 -36.596939 -1.276846 -5.213765 71.346602 -1.253972 -5.593744 -7.340457 -0.062700 0.000000 -25.858101
4.821676 16.440463 -3.702708 173.559359 67.507893 -178.855259 -9.528925 1.784547 -0.457604 -23.888513 4.799539 -19.654159 -2.900366 0.933238 34.038450 2.591130 7.335788 -27.465558 176.507900 -0.000000 -3.154700 11.083503 0.086534 -1.638078 -2.936271 -10.963907 -37.260219 -0.990624 -4.966358 68.411243 -1.399342 -6.407419 -7.857468 -0.044100 0.000000 -25.377100
